# xmcd
#
# Track frame offsets:
#	150
#	25062
#	45006
#	65480
#	95149
#	114475
#	141596
#	160091
#	174372
#	197304
#
# Disc length: 3062 seconds
#
# Revision: 1
# Processed by: cddbd v1.4PL0 Copyright (c) Steve Scherf et al.
# Submitted via: audiograbber 1.80.04
#
DISCID=7b0bf40a
DTITLE=The Stimulators - Private Music
DYEAR=1900
DGENRE=
TTITLE0=Tumbao Bonito
TTITLE1=Rock the Boogaloo
TTITLE2=Castellano
TTITLE3=Todo para mi
TTITLE4=Things about love
TTITLE5=Gun talk
TTITLE6=Me pongo a pensar
TTITLE7=Man cool, woman cooler
TTITLE8=Caipirinha
TTITLE9=In the beginning
EXTD=
EXTT0=
EXTT1=
EXTT2=
EXTT3=
EXTT4=
EXTT5=
EXTT6=
EXTT7=
EXTT8=
EXTT9=
PLAYORDER=
